<?xml version="1.0" standalone="no"?>
<!DOCTYPE svg PUBLIC "-//W3C//DTD SVG 20010904//EN"
 "http://www.w3.org/TR/2001/REC-SVG-20010904/DTD/svg10.dtd">
<svg version="1.0" xmlns="http://www.w3.org/2000/svg"
 width="430.000000pt" height="216.000000pt" viewBox="0 0 430.000000 216.000000"
 preserveAspectRatio="xMidYMid meet">
<metadata>
Created by potrace 1.15, written by Peter Selinger 2001-2017
</metadata>
<g transform="translate(0.000000,216.000000) scale(0.100000,-0.100000)"
fill="#000000" stroke="none">
<path d="M680 2135 l0 -25 1810 0 1810 0 0 25 0 25 -1810 0 -1810 0 0 -25z"/>
<path d="M1020 1830 l0 -270 1640 0 1640 0 0 200 c0 191 -1 200 -19 200 -12 0
-21 8 -24 23 -4 22 -5 22 -13 -3 l-8 -25 -5 23 -6 23 -22 -20 c-30 -28 -33
-27 -33 14 0 31 3 35 25 35 14 0 25 -6 25 -12 0 -9 4 -8 10 2 6 10 10 11 10 3
0 -7 7 -13 15 -13 9 0 18 -7 21 -15 11 -28 21 -6 23 50 l2 55 -1640 0 -1641 0
0 -270z"/>
<path d="M0 2060 c0 -25 4 -30 24 -30 13 0 27 -6 29 -12 4 -10 6 -10 6 0 1 15
33 16 49 0 9 -9 12 -9 12 0 0 17 37 15 44 -3 4 -10 -1 -15 -17 -16 -21 0 -21
-1 -2 -9 19 -8 19 -9 -2 -9 -13 -1 -23 4 -23 9 0 11 -40 -8 -52 -25 -4 -5 -8
1 -8 15 0 19 -3 21 -12 12 -7 -7 -20 -12 -30 -12 -17 0 -18 -14 -18 -210 l0
-210 495 0 495 0 0 265 0 265 -495 0 -495 0 0 -30z"/>
<path d="M0 1275 l0 -265 1550 0 1550 0 0 265 0 265 -1550 0 -1550 0 0 -265z
m928 213 c9 -9 12 -9 12 0 0 7 10 12 23 11 21 0 21 -1 2 -9 -16 -7 -17 -9 -3
-9 9 -1 19 -7 21 -13 3 -7 6 -3 6 8 1 20 6 22 74 20 l72 -1 0 -30 0 -30 -70
-2 c-44 -1 -73 3 -77 10 -6 9 -8 9 -8 0 0 -8 -16 -11 -47 -10 -37 2 -49 6 -51
20 -8 40 20 61 46 35z"/>
<path d="M0 966 c0 -18 7 -39 15 -46 8 -7 15 -18 15 -25 0 -7 -7 -18 -15 -25
-12 -10 -15 -47 -15 -211 l0 -199 2150 0 2150 0 0 270 0 270 -2150 0 -2150 0
0 -34z"/>
<path d="M1072 443 c593 -2 1563 -2 2155 0 593 1 108 2 -1077 2 -1185 0 -1670
-1 -1078 -2z"/>
</g>
</svg>
